<svg width="1200" height="1200" xmlns="http://www.w3.org/2000/svg" xmlns:xlink="http://www.w3.org/1999/xlink" version="1.1"><g transform="scale(12.320759101673982) translate(0.895764509836833, -0.0327018102010177)">                        <g fill="#8946e8"><path xmlns="http://www.w3.org/2000/svg" d="M31.051,11.663c5.708,0,11.183,2.096,15.417,5.903l1.337,1.202l1.337-1.202c4.234-3.807,9.709-5.903,15.417-5.903  c6.164,0,11.96,2.401,16.319,6.76c4.385,4.384,6.64,10.117,6.749,15.892c0,1.105,0.896,2.002,2.002,2.002s2.002-0.896,2.002-2.002  c-0.108-6.801-2.761-13.558-7.925-18.72c-5.114-5.115-11.914-7.932-19.147-7.932c-6.11,0-11.995,2.049-16.754,5.802  c-4.759-3.753-10.644-5.802-16.754-5.802c-7.233,0-14.033,2.817-19.147,7.932c-7.734,7.733-9.842,19.041-6.187,28.72  c0.518,1.371,1.149,2.709,1.898,4h4.765H24.5c1.444,0,2.791-1.005,3.201-2.39l3.653-12.313l8.82,32.267  c0.36,1.316,1.327,1.833,2.111,1.876c0.038,0.002,0.076,0.003,0.114,0.003c0.767,0,1.713-0.425,2.195-1.634l9.812-24.667  l6.592,14.76c0.417,0.931,1.22,1.519,2.149,1.573c0.927,0.045,1.794-0.438,2.314-1.315l4.844-8.161h12.907  c-0.444,0.608-0.909,1.206-1.42,1.779L47.805,84.138L21.091,57.382l-0.037-0.037c-0.364-0.355-0.861-0.576-1.41-0.576  c-1.117,0-2.024,0.906-2.024,2.023c0,0.405,0.122,0.781,0.327,1.098l29.858,29.909l36.858-36.917l0.074-0.078  c1.259-1.405,2.328-2.915,3.241-4.488c0.749-1.292,1.39-2.627,1.907-4h-4.325H70.167c-1.26,0-2.588,0.756-3.229,1.839l-3.453,5.818  l-6.95-15.561c-0.438-0.978-1.263-1.556-2.216-1.556c-0.016,0-0.032,0-0.05,0c-0.973,0.021-1.794,0.637-2.196,1.648L42.72,60.02  l-9.094-33.268c-0.375-1.367-1.371-1.862-2.178-1.871c-0.007,0-0.014,0-0.021,0c-0.804,0-1.796,0.479-2.194,1.825l-5.226,17.61  H10.06c-3.896-8.541-2.303-18.919,4.672-25.892C19.091,14.064,24.887,11.663,31.051,11.663z"/></g>        </g></svg>