<svg width="1200" height="1200" xmlns="http://www.w3.org/2000/svg" xmlns:xlink="http://www.w3.org/1999/xlink" version="1.1"><g transform="scale(12.60436967894143) translate(-2.3995399475097656, -2.3974609375)">                        <g fill="#8946e8"><path xmlns="http://www.w3.org/2000/svg" d="M30.2958984,87.6884766c0.6279297,0,1.2832031-0.1923828,1.9604492-0.5776367  c0.4057617-0.2358398,3.9116211-2.6362305,2.043457-14.0048828c-0.0673828-0.4086914-0.4526367-0.684082-0.8618164-0.6186523  c-0.4086914,0.0673828-0.6855469,0.453125-0.6186523,0.8618164c1.6992188,10.340332-1.3046875,12.4560547-1.3110352,12.4619141  c-0.7148438,0.4057617-1.328125,0.4799805-1.8735352,0.2270508c-1.2792969-0.59375-2.402832-3.0200195-3.0825195-6.6572266  c-0.0761719-0.4077148-0.4726563-0.6757813-0.875-0.5996094c-0.4072266,0.0761719-0.6757813,0.4677734-0.5996094,0.875  c0.6782227,3.6278687,1.7278442,6.0333862,3.1188354,7.2043457l-4.0724487,2.1984863  c-0.0019531,0.0010376-0.0029297,0.0029907-0.0048828,0.0040894c-0.3580933-12.0841064,1.357605-17.1936035,2.5812988-19.2706909  c0.1293945,3.1696777,0.6809082,9.0924072,2.9777832,11.1923828c0.5917969,0.5410156,1.2617188,0.8139648,1.9946289,0.8139648  c0.0986328,0,0.1977539-0.0048828,0.2988281-0.0146484c0.4121094-0.0405273,0.7133789-0.4072266,0.6733398-0.8198242  c-0.0405273-0.4121094-0.4077148-0.7172852-0.8198242-0.6733398c-0.4199219,0.0390625-0.7807617-0.0898438-1.1342773-0.4130859  c-1.5563965-1.4226685-2.1964722-5.7313843-2.4223022-9.0082397c0.0302124-0.1047363,2.0964355-7.0454712,6.9564819-10.2666626  c-0.0488281,0.4467773-0.3149414,1.0976563-1.1772461,1.9238281c-0.2749023,0.2631836-0.309082,0.6899414-0.0800781,0.9936523  c0.5595703,0.7412109,2.3061523,1.6772461,4.9472656-0.1162109c1.6166992-1.25,3.4980469-2.2709961,4.0390625-2.2050781  c0.1557617,0.1240234,0.5532227,0.4833984,0.559082,0.9013672c0.0073242,0.4863281-0.5205078,0.9711914-1.0078125,1.3256836  l-1.4145508,1.1894531c-0.2070313,0.1743164-0.3022461,0.4443359-0.2553711,0.7055664  c-0.0073242,0.0869141-0.0883789,0.6220703-1.0141602,1.7089844c-0.5322266,0.3442383-3.4672852,2.2094727-6.8408203,3.7402344  c-0.0709229,0.0309448-1.4050903,0.6415405-2.0615234,1.8139038c-0.2749634-0.3374634-0.5547485-0.7109985-0.8066406-1.0907593  c-0.2285156-0.3452148-0.6948242-0.4399414-1.0395508-0.2104492c-0.3447266,0.2290039-0.4394531,0.6938477-0.2109375,1.0390625  c0.5449219,0.8227539,1.9360352,2.7602539,3.0825195,2.9892578c0.0493164,0.0097656,0.0976563,0.0146484,0.1459961,0.0146484  c0.3427734,0,0.6420898-0.2416992,0.7192383-0.5913086c0.0883789-0.3989258-0.1728516-0.7978516-0.5698242-0.894043  c-0.0477295-0.0115356-0.1089478-0.0444946-0.1782227-0.0908203c0.0002441-0.0015869,0.0012207-0.0028076,0.0014648-0.0043945  c0.1103516-0.8081055,1.1342773-1.4296875,1.5273438-1.6044922c3.8354492-1.7402344,7.0097656-3.8266602,7.1430664-3.9145508  c0.0571289-0.0375977,0.1083984-0.0830078,0.1533203-0.1342773c1.0390625-1.1972656,1.3637695-2.027832,1.434082-2.5512695  l1.1069336-0.9326172c1.0722656-0.7753906,1.6054688-1.6318359,1.5854492-2.5463867  c-0.0288086-1.2929688-1.1625977-2.0751953-1.3681641-2.2041016c-0.2780762-0.138855-0.6144409-0.1690063-0.9836426-0.1256104  c0.2548828-6.5290527,0.5910645-11.8851929,0.7451782-14.1743164c1.390686,1.0227661,3.4865723,2.0865479,6.2164917,2.0865479  c2.0020752,0,4.3449707-0.5822144,6.9874878-2.1638794c0.3128662,1.0611572,0.7542114,2.0629883,1.3634033,2.9302979  c-0.0343628,0.0869141-0.0551758,0.1807861-0.0545044,0.2799683c0,0.0258789,0.0175781,2.659668-0.0634766,6.3105469  c-0.0087891,0.4140625,0.3193359,0.7573242,0.7333984,0.7666016c0.0058594,0,0.0112305,0,0.0170898,0  c0.40625,0,0.7402344-0.3251953,0.7495117-0.7333984c0.0477295-2.1638184,0.0610962-3.9680786,0.064209-5.0958862  c0.3453369,0.263855,0.72229,0.4971924,1.1350098,0.6935425c0.1005859,0.0478516,0.2109375,0.0727539,0.3222656,0.0727539h6.6552734  c0.4140625,0,0.75-0.3359375,0.75-0.75s-0.3359375-0.75-0.75-0.75h-6.4794922  c-1.8132935-0.9379272-2.7646484-2.8734131-3.2316895-5.0142212c-0.0031128-0.0216064-0.0073853-0.0418701-0.0124512-0.0632324  c-0.8688354-4.0722656-0.0057373-8.8565674,0.0083008-8.9308472c0.0756836-0.4067383-0.1923828-0.7988281-0.5996094-0.875  c-0.4052734-0.0737305-0.7988281,0.1918945-0.875,0.5991211c-0.0578613,0.3092041-0.8696899,4.810791-0.0966187,9.0229492  c-6.1156006,3.8720093-10.3169556,1.798645-12.3001709,0.1807861c0.0299683-0.0229492,0.0651855-0.0350952,0.0921021-0.0631104  c1.0263062-1.0690308,1.354187-4.4814453,1.4591675-6.527832c1.2033081,0.7369995,2.5563354,1.1621094,3.9920044,1.1621094  c4.9282227,0,8.9379883-4.8911133,8.9379883-10.902832c0-1.875-0.3903809-3.6407471-1.0766602-5.1832886  c-0.0186768-0.046936-0.0379028-0.0908203-0.0650635-0.1323242c-1.4645996-3.1834106-4.199646-5.3735352-7.3618164-5.5603638  c-0.0158691-0.0014038-0.0291748-0.0098877-0.0452881-0.0102539c-0.0061035,0.000061-0.0111694,0.0031738-0.0172119,0.0033569  c-0.0064087-0.0001831-0.0114746-0.0032959-0.0179443-0.0033569c-0.0065308,0.0001831-0.0118408,0.0038452-0.0183105,0.0041504  c-0.1123047-0.005127-0.2223511-0.020752-0.3356934-0.020752c-3.3592529,0-6.2885132,2.2749023-7.8151245,5.6257935  c-0.008667,0.0150757-0.0153809,0.0303955-0.0230103,0.0461426c-0.699707,1.5540161-1.0993652,3.3362427-1.0993652,5.230896  c0,3.5077515,1.3706665,6.6252441,3.4866943,8.6209106c-0.053772,2.2806396-0.3485107,4.8708496-0.7875366,6.057251  c-0.1643066-0.15625-0.3886719-0.2454834-0.6303101-0.2059937c-0.2495117,0.0410156-0.5251465,0.1518555-0.810791,0.2910156  c-0.0725098,0.0240479-0.1451416,0.0496216-0.2102051,0.097168c-0.0078125,0.0056763-0.0112305,0.0145874-0.0187378,0.0205078  c-3.1021729,1.7149658-7.835083,8.1893311-8.9470825,9.7509766c-2.1416016,2.0136719-4.6523438,0.8876953-4.7675781,0.8339844  c-0.3745117-0.1757813-0.8193359-0.0166016-0.996582,0.3569336c-0.1777344,0.3740234-0.0185547,0.8212891,0.3554688,0.9990234  c0.0578613,0.0276489,0.6396484,0.2958984,1.5023193,0.4308472c-0.975647,1.0282593-2.2822876,1.9171753-3.1932373,2.4700317  c0.1108398-2.6572266,1.140625-4.5913086,1.1552734-4.6186523c2.2953491-4.3109741,6.5701904-7.2854004,8.4352417-8.4370728  c-0.2539673,0.6883545-0.545166,1.2511597-0.8834839,1.6089478c-0.284668,0.3007813-0.2714844,0.7753906,0.0297852,1.0600586  c0.1445313,0.137207,0.3300781,0.2050781,0.5151367,0.2050781c0.1987305,0,0.3974609-0.0786133,0.5449219-0.2348633  c2.0291748-2.1452026,2.5998535-8.7020264,2.7609253-12.2589722c1.1005249,1.6911011,2.121582,3.7111206,2.0579224,5.2355347  c-0.0170898,0.4140625,0.3046875,0.7631836,0.7182617,0.7807617c0.0107422,0.0004883,0.0209961,0.0004883,0.0317383,0.0004883  c0.3999023,0,0.7319336-0.3154297,0.7490234-0.71875c0.1396484-3.355957-3.4589844-7.8266602-4.359375-8.8901367  c0.1987305-7.0932617,1.9643555-12.1655273,5.2504883-15.0800781c3.2202148-2.855957,6.8369141-2.5400391,6.8710938-2.534668  c0.0380859,0.003418,0.0771484,0.003418,0.1157227,0.0029297c0.0424805,0.003418,4.4804688-0.1831055,7.8779297,3.1450195  c2.4335327,2.3829346,3.7485352,5.9560547,3.9228516,10.6369629c-0.6254272-0.7645874-1.2386475-1.5396729-1.5688477-1.9641113  c-0.2543945-0.3266602-0.7270508-0.3867188-1.0522461-0.1313477c-0.3271484,0.2539063-0.3857422,0.7250977-0.1313477,1.0522461  c0.0869141,0.1123047,1.8071289,2.3212891,2.9135742,3.5527344c-1.1171875,0.9584961-2.9316406,2.6884766-3.0673828,3.909668  c-0.0200195,0.1816406,0.0268555,0.3637695,0.1313477,0.5131836l2.7397461,3.9135742  c-1.8164063,2.4550781-3.9052734,7.15625-0.5795898,10.050293c0.1420898,0.1235352,0.3173828,0.184082,0.4916992,0.184082  c0.2094727,0,0.4179688-0.0874023,0.5664063-0.2578125c0.2719727-0.3125,0.2387695-0.7861328-0.0737305-1.0581055  c-1.8253784-1.5886841-1.3295898-3.9432983-0.5028687-5.760498c0.2102661,0.4849854,0.4761963,1.0311279,0.8119507,1.5861816  c0.140625,0.2329102,0.3886719,0.3618164,0.6420898,0.3618164c0.1323242,0,0.2661133-0.034668,0.3876953-0.1083984  c0.3544922-0.2143555,0.4677734-0.675293,0.253418-1.0297852c-0.6195679-1.0245361-0.9892578-2.0440674-1.1481934-2.534729  c0.3675537-0.567749,0.6520996-0.9216309,0.6633301-0.9354858c0.2124023-0.2597656,0.2265625-0.6298828,0.0336914-0.9047852  l-0.0030518-0.0043335c-0.0079346-0.0631104-0.0164185-0.1265869-0.0408936-0.1870728  c-0.0993652-0.5812988-0.0577393-3.8721313,0.0426636-6.9081421c0.0732422-0.0604248,0.1468506-0.1234741,0.2195435-0.1817017  c0.1708984-0.1367188,0.2734375-0.3413086,0.2807617-0.5605469c0.0073242-0.21875-0.081543-0.4301758-0.2426758-0.578125  c-0.0718384-0.0657959-0.1646729-0.1618652-0.262207-0.2649536c0.118042-5.9614868-1.3480835-10.4950562-4.3779297-13.4625854  c-3.6894531-3.6137695-8.355957-3.5849609-8.9462891-3.5737305c-0.5429688-0.0429688-4.4042969-0.2265625-7.934082,2.8842773  c-3.6743164,3.237793-5.6225586,8.7832031-5.7915039,16.4819336c-0.0039063,0.1889648,0.0634766,0.3725586,0.1884766,0.5136719  c0.1865234,0.2106934,0.4219971,0.4935913,0.6808472,0.8207397c-0.0282593,2.1694946-0.2608643,6.4694824-0.973999,9.6794434  c-0.1123047,0.0021362-0.2251587,0.0223999-0.3318481,0.0784302c-0.2758789,0.144043-6.7851563,3.5952148-9.9770508,9.590332  c-0.0644531,0.1181641-1.5795898,2.9379883-1.3139648,6.6601563c0.015686,0.2232056,0.1412354,0.4152832,0.3208008,0.5442505  c-0.586731,1.9655762-1.6342773,6.017395-1.6342773,9.9108276c0,0.0512085,0.0193481,0.0961304,0.0291748,0.1444702  c-3.3776855,2.8450317-7.225647,8.9221191-6.4378662,21.7442017c0.0244141,0.3979492,0.3544922,0.7041016,0.7480469,0.7041016  c0.0151367,0,0.0307617-0.0004883,0.0463867-0.0014648c0.4135742-0.0253906,0.7280273-0.3808594,0.7026367-0.7944336  c-0.8666992-14.1054077,4.0298462-19.4801025,7.237854-21.4752808c-1.4848633,2.9546509-3.031311,9.2340698-2.3252563,22.5109253  c0.0214844,0.3999023,0.3525391,0.7099609,0.7485352,0.7099609c0.0131836,0,0.0268555-0.0004883,0.0405273-0.0009766  c0.4135742-0.0219727,0.730957-0.375,0.7089844-0.7890625c-0.0303955-0.5717163-0.0548096-1.1241455-0.0769043-1.6688232  c0.1001587,0.0473022,0.2056885,0.0858154,0.3171387,0.0858154c0.1206055,0,0.2426758-0.0288086,0.355957-0.0898438  l5.0650635-2.734375C30.0328979,87.6623535,30.1625366,87.6884766,30.2958984,87.6884766z M55.4092407,22.1237793  c-1.0056763-0.0774536-2.4447021-0.3580933-3.4824829-1.2800293c-0.6503906-0.5775146-1.0561523-1.3577271-1.2244873-2.3171997  C52.6165161,18.9260254,54.2826538,20.2483521,55.4092407,22.1237793z M49.0296021,18.4195557  c-0.1541138,0.9199219-0.5419922,1.6657715-1.1936646,2.2513428c-1.2241821,1.1008911-3.072876,1.394165-4.2713623,1.4615479  C44.8366089,20.0098877,46.7996216,18.5932007,49.0296021,18.4195557z M42.0517578,27.7929688  c0-1.4873047,0.2819214-2.8897705,0.7703857-4.1412354c0.0443115,0.0005493,0.0837402,0.0015869,0.1324463,0.0015869  c1.2817383,0,4.0366211-0.2099609,5.8789063-1.8618164c0.4123535-0.369812,0.7283936-0.8033447,0.9981079-1.2664185  c0.2871094,0.5367432,0.6369019,1.0296021,1.0990601,1.4402466c1.6801758,1.4921875,4.0439453,1.6879883,5.1679688,1.6879883  c0.0215454,0,0.0379639-0.0006714,0.0585327-0.0007935c0.4882202,1.2512817,0.7700806,2.6534424,0.7700806,4.1404419  c0,5.1845703-3.3364258,9.402832-7.4379883,9.402832C45.3881836,37.1958008,42.0517578,32.9775391,42.0517578,27.7929688z   M61.2328491,35.5634766l-1.2489624-1.7841797c0.1807861-0.3879395,0.6831665-0.9848633,1.309082-1.6159668  C61.2518311,33.6147461,61.2335205,34.7265625,61.2328491,35.5634766z M26.090271,58.9331665  c1.2264404-0.7249146,3.3389893-2.1287842,4.5181274-3.8042603c0.0181274-0.0257568,0.0219727-0.0557861,0.036438-0.0828857  c0.9821777-0.1618652,2.062439-0.607605,3.0787964-1.588501c0.0336914-0.0322266,0.0639648-0.0673828,0.0908203-0.1054688  c2.1547852-3.0332031,5.8804321-7.6549072,8.0686035-9.135376c0.0350952,0.0374756,0.0657349,0.0714722,0.1049805,0.1119995  c-0.0564575,0.7852783-0.5253906,7.4118042-0.8468018,15.8838501c-1.1277466,0.5246582-2.3033447,1.355835-3.1060791,1.9779053  c-1.1147461,0.7568359-1.8564453,0.8261719-2.3071289,0.7275391c1.8481445-2.2705078,0.6083984-3.8671875,0.5493164-3.9404297  c-0.2255859-0.2802734-0.6210938-0.3598633-0.9394531-0.1894531c-3.6620483,1.9711304-5.9741211,5.7249146-7.2515869,8.4476318  c-0.017395-0.0180054-0.041626-0.0263062-0.0606689-0.0423584c-0.0375366-0.0319824-0.0757446-0.0588379-0.1187134-0.0828857  c-0.0402832-0.0223999-0.0804443-0.039856-0.1242065-0.0545654c-0.0474243-0.0161743-0.0940552-0.0268555-0.1444702-0.0331421  c-0.0484009-0.0061646-0.0953369-0.0058594-0.1448364-0.0023804c-0.0272217,0.0020142-0.0529175-0.0064697-0.0803223-0.0013428  c-0.1613159,0.0291748-1.4761353,0.2963257-3.1499634,1.3390503C24.4450684,64.2254639,25.7416382,60.0026855,26.090271,58.9331665z  "/><path xmlns="http://www.w3.org/2000/svg" d="M79.6791992,70.6650391c0-2.9608154-2.1855469-8.4909668-3.170166-10.8327637  c0.071167-0.1195679,0.1091309-0.2588501,0.1052246-0.4035645c-0.2420044-9.3915405-9.005188-13.9963989-10.6694336-14.7872314  c-0.3138428-0.7084351-0.9090576-0.9929199-0.984375-1.0267334c-0.3793945-0.1674805-0.8222656,0.0014648-0.9907227,0.3793945  c-0.168457,0.378418,0.0014648,0.8217773,0.3793945,0.9907227c0.0019531,0.0004883,0.1928711,0.1118164,0.2587891,0.3623047  c0.0673828,0.2563477,0.0585938,0.8515625-0.7583008,1.9550781c-0.2460938,0.3330078-0.1762695,0.8027344,0.1567383,1.0493164  c0.1342773,0.0991211,0.2905273,0.1469727,0.4458008,0.1469727c0.2294922,0,0.4560547-0.1049805,0.6035156-0.3037109  c0.4817505-0.6509399,0.7910156-1.2594604,0.9499512-1.8275146c2.2478027,1.2376099,7.9264526,4.9551392,8.9533691,11.4007568  c-0.8881836-0.7207031-2.1181641-1.7412109-3.4091797-2.8828125c-0.3105469-0.2744141-0.7836914-0.2456055-1.0585938,0.0654297  c-0.2744141,0.3100586-0.2451172,0.7841797,0.0654297,1.0585938c1.7230835,1.5234375,3.3237305,2.8218384,4.1856079,3.5082397  c0.4066162,0.9299316,2.5586548,5.9523315,3.2311401,9.4058228c-3.4834595-3.2744141-7.260498-3.3413086-7.3522949-3.3413086  h-0.0004883c-0.0234985,0.0001221-0.0432129,0.0114746-0.0661011,0.0136719  c-0.048645,0.0043945-0.0944214,0.0152588-0.1420898,0.0293579c-0.0500488,0.0150757-0.0964355,0.0320435-0.1414185,0.0566406  c-0.0192871,0.010376-0.0408936,0.0116577-0.0595703,0.0238647c-0.0218506,0.0144043-0.0335693,0.0368042-0.0534058,0.0530396  c-0.0403442,0.0328369-0.0755615,0.0673218-0.1083374,0.1077271c-0.0299683,0.0371094-0.0551758,0.0743408-0.0772705,0.1157837  c-0.0227661,0.0421143-0.0401611,0.0844727-0.0545654,0.1309204c-0.0151978,0.0490723-0.024292,0.0970459-0.0292358,0.1482544  c-0.0025024,0.0255737-0.0147095,0.0478516-0.0145874,0.0741577c0.0001221,0.022522,0.0110474,0.0414429,0.0131226,0.0634766  c0.0043945,0.0501709,0.0154419,0.0974121,0.0302124,0.1464844c0.0148315,0.0490112,0.0317383,0.0944824,0.0557861,0.1386108  c0.0105591,0.0196533,0.0119019,0.041626,0.0244141,0.0606079c0.0756836,0.1151123,6.9324341,10.6766968,6.6564331,21.1621094  c-1.3016357-0.7438965-4.5576172-2.3342285-7.7717896-1.8123169c1.0396118-3.5109863,0.6398315-11.1496582,0.2296143-16.085144  c-0.034668-0.4125977-0.402832-0.7138672-0.8095703-0.6855469c-0.4130859,0.034668-0.7197266,0.3969727-0.6855469,0.8095703  c0.5957031,7.1650391,0.5546875,15.3168945-0.4370117,16.3354492c-0.0957031-0.0581055-0.3081055-0.2255859-0.6381836-0.6884766  c-0.0488281-0.0678711-0.0380859-0.0693359-0.1064453-0.1176758c-0.0658569-0.0719604-1.5787354-1.8569946-2.4649048-13.9006348  c0.1369629,0.0528564,0.2254639,0.0825195,0.2485962,0.0900879c0.0776367,0.0258789,0.15625,0.0375977,0.2338867,0.0375977  c0.3144531,0,0.6074219-0.199707,0.7114258-0.5151367c0.1298828-0.3925781-0.0834961-0.8164063-0.4760742-0.9472656  c-0.0375977-0.012207-3.7421875-1.2749023-4.2407227-4.1323242c-0.0727539-1.4741211-0.3266602-4.9174805-1.1303711-5.9609375  c-0.0771484-0.1552734-0.1450195-0.3388672-0.1826172-0.4833984c0.1450195,0.0253906,0.3740234,0.0864258,0.7167969,0.2260742  c0.296875,0.3388672,0.7670898,1.0053711,0.8041992,1.503418c0.0297852,0.3964844,0.340332,0.6933594,0.7617188,0.6943359  c0.3979492-0.0073242,0.7207031-0.3242188,0.7358398-0.7216797l0.3012695-8.0048828  c0.1518555-0.1191406,0.3564453-0.2348633,0.5180664-0.1958008c0.2607422,0.0576172,0.5395508-0.03125,0.7226563-0.2250977  c0.1147461-0.1235352,0.5322266-0.4995117,1.0654297-0.1630859c0.0810547,0.0507813,0.1704102,0.0854492,0.2641602,0.1025391  c0.4423828,0.0805664,1.1220703,0.3413086,1.3432617,0.6313477v1.0600586c0,0.2143555,0.0913086,0.4267578,0.2514648,0.5693359  c0.159668,0.1420898,0.3740234,0.21875,0.5854492,0.1928711c0.0493164,0.0458984,0.1289063,0.2304688,0.1137695,0.6220703  l-0.5288086,9.8515625c-0.1513672,1.1035156-0.6342773,2.4418945-1.0844727,2.597168  c-0.3916016,0.1347656-0.6000977,0.5615234-0.4648438,0.953125c0.1347656,0.3920898,0.5625,0.5976563,0.953125,0.4648438  c1.5639648-0.5385742,2.0092773-3.2709961,2.0883789-3.8735352l0.5351563-9.9238281  c0.0302734-0.7973633-0.1694336-1.4003906-0.5942383-1.7929688c-0.1162109-0.1074219-0.2368164-0.1870117-0.3549805-0.246582  v-0.6606445c0-0.0952148-0.0180664-0.1899414-0.0537109-0.2783203c-0.4370117-1.0932617-1.859375-1.4995117-2.3823242-1.6142578  c-1.0400391-0.5776367-1.9956055-0.2021484-2.5473633,0.2246094c-0.965332,0.0078125-1.6557617,0.7866211-1.7407227,0.887207  c-0.1083984,0.1279297-0.1704102,0.2885742-0.1767578,0.4560547l-0.2133789,5.6704102  c-0.050293-0.0395508-0.105957-0.0722656-0.1645508-0.0976563c-0.824707-0.3554688-1.996582-0.7421875-2.6582031-0.0141602  c-0.395874,0.4346924-0.3666382,1.0252075-0.2353516,1.5216675c-0.0020752,0.0177612-0.0119019,0.0324707-0.0126953,0.0505981  c-0.3769531,8.5712891-1.1489258,14.4067383-2.2324219,16.875c-0.1660156,0.3793945,0.0063477,0.8217773,0.3857422,0.9882813  c0.0981445,0.0429688,0.2001953,0.0629883,0.3007813,0.0629883c0.2885742,0,0.5639648-0.1674805,0.6875-0.4487305  c0.9337769-2.1278687,1.6256714-6.2792969,2.0668335-12.3583984c0.0264893,0.3358154,0.0500488,0.677002,0.0679321,1.0229492  c0.3919678,2.2714233,2.0898438,3.7151489,3.4539795,4.532959c0.8374634,12.2588501,2.3311157,15.0775146,2.947876,15.7155762  c0.2841797,0.3964844,0.965332,1.2915039,1.8413086,1.2915039c0.0853271,0,0.1762695-0.0299683,0.2650757-0.0482788  c0.1353149,0.0236816,0.2756348,0.0236206,0.4121704-0.0332642c3.7290039-1.546875,8.4814453,1.5615234,8.5297852,1.5932617  c0.0448608,0.0297241,0.0936279,0.0473633,0.1418457,0.0663452c-0.0394897,0.3839722-0.0877075,0.7672119-0.1491699,1.1489868  c-0.065918,0.4086914,0.2119141,0.7939453,0.6210938,0.859375c0.0400391,0.0068359,0.0805664,0.0097656,0.1201172,0.0097656  c0.3618164,0,0.6801758-0.262207,0.7392578-0.6308594c1.572876-9.7645874-3.6591797-19.9995117-5.784729-23.6576538  c3.1015625,0.762146,10.0446777,4.1182251,10.1773071,18.9154663c0.0039063,0.4116211,0.3388672,0.7431641,0.75,0.7431641  c0.0019531,0,0.0043945,0,0.0068359,0c0.4140625-0.0039063,0.7470703-0.3422852,0.7431641-0.7568359  c-0.067749-7.5755615-1.873291-12.3649292-4.1251831-15.3980713C79.659729,70.762146,79.6791992,70.7167969,79.6791992,70.6650391z"/><path xmlns="http://www.w3.org/2000/svg" d="M41.6318359,69.4873047c-0.0039063,0-0.0078125,0-0.0112305,0c-0.4091797,0-0.7436523,0.3286133-0.75,0.7387695  c-0.1171875,7.7802734,0.0258789,14.3579102,0.4243164,19.550293c0.0297852,0.3935547,0.3583984,0.6928711,0.746582,0.6928711  c0.0195313,0,0.0390625-0.0004883,0.0581055-0.0019531c0.4130859-0.0317383,0.722168-0.3925781,0.6904297-0.8051758  c-0.3945313-5.1474609-0.5356445-11.6791992-0.4194336-19.4135742  C42.3769531,69.8344727,42.0458984,69.4936523,41.6318359,69.4873047z"/><path xmlns="http://www.w3.org/2000/svg" d="M53.9213867,53.3193359c-0.937439-0.4784546-2.1660156-0.3458862-3.6473999,0.3782959  c-1.4806519-0.7241821-2.7087402-0.8567505-3.6470337-0.3782959c-0.9516602,0.4858398-1.3198242,1.4814453-1.3901367,2.0126953  c-0.4824219,4.5854492,4.4448242,7.5615234,4.6547852,7.6855469c0.0031128,0.0018311,0.0068359,0.0009155,0.0099487,0.0027466  c0.1035767,0.0595703,0.2201538,0.0877075,0.3391724,0.0933838c0.0109863,0.0004883,0.0212402,0.0088501,0.0322266,0.0088501  c0.0003662,0,0.0006104-0.0002441,0.0009766-0.0002441s0.0006104,0.0002441,0.0009766,0.0002441  c0.0109863,0,0.0212402-0.0083618,0.0322266-0.0088501c0.1190186-0.0056763,0.2355957-0.0338135,0.3391724-0.0933838  c0.0031128-0.0018311,0.0068359-0.0009155,0.0099487-0.0027466c0.2099609-0.1240234,5.1376953-3.1000977,4.652832-7.7050781  C55.2412109,54.8007813,54.8730469,53.8051758,53.9213867,53.3193359z M50.2738037,61.4727173  c-1.0446777-0.7346191-3.8588257-3.0043945-3.5487061-5.9556274c0.0009766-0.0063477,0.1025391-0.6235352,0.59375-0.8671875  c0.5341797-0.2641602,1.4570313-0.0712891,2.5991211,0.5449219c0.0228271,0.0123901,0.0480957,0.012085,0.0715942,0.0218506  c0.0471802,0.0197144,0.0935669,0.0341797,0.1437378,0.0439453c0.0474854,0.0091553,0.0927734,0.0140991,0.1404419,0.013916  c0.0476685,0.0001831,0.0931396-0.0047607,0.140686-0.013916c0.0500488-0.0097656,0.0960693-0.0241089,0.1431274-0.0437012  c0.0237427-0.0098267,0.0492554-0.0095825,0.0723267-0.0220947c1.1430664-0.6162109,2.0654297-0.8076172,2.5996094-0.5449219  c0.4824219,0.2397461,0.5888672,0.8398438,0.590332,0.8398438C54.1323853,58.463623,51.3182373,60.7376099,50.2738037,61.4727173z"/><path xmlns="http://www.w3.org/2000/svg" d="M44.6557617,9.246582c1.5136719-0.390625,3.081543-0.5888672,4.659668-0.5888672  c10.2495117,0,18.5883789,8.3388672,18.5883789,18.5883789c0,3.5410156-0.9990234,6.9848633-2.8896484,9.9584961  c-0.222168,0.3496094-0.1191406,0.8129883,0.2304688,1.0351563c0.1245117,0.0795898,0.2641602,0.1171875,0.4018555,0.1171875  c0.2475586,0,0.4907227-0.1230469,0.6333008-0.3476563c2.0439453-3.2148438,3.1240234-6.9365234,3.1240234-10.7631836  c0-11.0766602-9.0117188-20.0883789-20.0883789-20.0883789c-1.7045898,0-3.3984375,0.2143555-5.034668,0.6367188  c-0.4008789,0.1035156-0.6420898,0.5126953-0.5385742,0.9135742C43.8457031,9.109375,44.253418,9.3496094,44.6557617,9.246582z"/><path xmlns="http://www.w3.org/2000/svg" d="M38.3925781,12.0361328c0.1459961,0,0.2939453-0.0424805,0.4233398-0.1313477  c0.5214844-0.3569336,1.0649414-0.6904297,1.6152344-0.9902344c0.3637695-0.1982422,0.4980469-0.6538086,0.2998047-1.0175781  s-0.6542969-0.496582-1.0175781-0.2998047c-0.5947266,0.3242188-1.1821289,0.6845703-1.7451172,1.0703125  c-0.3417969,0.2338867-0.4291992,0.7006836-0.1948242,1.0424805C37.918457,11.9223633,38.1538086,12.0361328,38.3925781,12.0361328z  "/><path xmlns="http://www.w3.org/2000/svg" d="M33.4418945,39.0429688c0.1484375,0,0.2978516-0.043457,0.4282227-0.1347656  c0.3398438-0.2368164,0.4233398-0.7045898,0.1865234-1.0439453c-2.1777344-3.1240234-3.3291016-6.7954102-3.3291016-10.6181641  c0-4.6401367,1.7192383-9.0839844,4.8413086-12.512207c0.2788086-0.3061523,0.2563477-0.7807617-0.0498047-1.0595703  c-0.3056641-0.2792969-0.7807617-0.2573242-1.0595703,0.0498047c-3.3740234,3.7050781-5.2319336,8.5073242-5.2319336,13.5219727  c0,4.1308594,1.2446289,8.0991211,3.5986328,11.4755859C32.972168,38.9311523,33.2050781,39.0429688,33.4418945,39.0429688z"/></g>        </g></svg>